<?xml version="1.0" encoding="UTF-8" standalone="no"?>
<!DOCTYPE svg PUBLIC "-//W3C//DTD SVG 1.1//EN" "http://www.w3.org/Graphics/SVG/1.1/DTD/svg11.dtd">
<svg version="1.1" xmlns="http://www.w3.org/2000/svg" xmlns:xlink="http://www.w3.org/1999/xlink" preserveAspectRatio="xMidYMid meet" viewBox="98.3750621989838 493.89859981697805 472.40152396723437 60.687936070617525" width="468.4" height="56.69"><defs><path d="M524.69 500.21C527.05 494.39 535.79 497.13 533.99 503.45C533.23 506.11 531.19 508.74 529.31 510.72C524.9 515.38 519.21 516.92 513.92 520.13C512.97 520.71 514.33 521.96 515.07 521.85C523.35 520.58 535.54 512.55 536.63 503.46C537.07 499.81 534.93 496.48 531.44 495.3C528 494.13 523.57 495.59 523.31 499.63C523.27 500.22 524.4 500.93 524.69 500.21" id="amA5ghQpb"></path><path d="M514.82 526.26C522.88 528.83 531.79 532.21 534.4 541.19C535.04 543.37 534.43 545.76 532.82 547.43C531.4 548.92 529.34 549.39 527.34 548.98C523.72 548.23 522.71 544.92 524.16 541.86C524.53 541.07 522.99 539.96 522.4 540.67C518.78 545.07 522.62 550.55 527.5 551.42C532.19 552.26 536.13 549.87 537.16 545.18C538.21 540.41 534.29 534.91 530.88 531.97C526.62 528.28 520.29 525.37 514.66 525.11C513.81 525.07 514.32 526.1 514.82 526.26" id="d19zwTDLD"></path><path d="M543.58 507.55C541.21 510.24 539 513.06 536.5 515.63C534.01 518.18 530.82 519.93 528.38 522.44C527.69 523.15 529.09 524.41 529.83 524.19C532.95 523.23 535.68 520.36 537.87 518.04C540.55 515.19 542.91 512 544.89 508.63C545.29 507.96 544.13 506.92 543.58 507.55" id="b7Jp2dakpU"></path><path d="M528.89 523.84C532.02 525.16 534.99 526.56 537.55 528.85C539.95 531.01 541.14 533.72 542.97 536.27C543.49 536.99 544.88 537.08 544.71 535.94C543.7 529.19 534.95 523.85 528.89 522.56C527.81 522.33 528.21 523.55 528.89 523.84" id="bkV6zH7NY"></path><path d="M550.25 514.28C548.92 515.79 547.68 517.39 546.25 518.81C544.85 520.19 543.17 521.17 541.83 522.61C541.31 523.18 542.38 524.12 542.95 523.96C546.98 522.92 549.72 518.9 551.67 515.46C552.09 514.73 550.85 513.6 550.25 514.28" id="b1egQCpYcm"></path><path d="M542.42 523.6C544.02 524.31 545.71 525.08 546.98 526.31C548.36 527.65 548.79 529.46 549.89 530.98C550.25 531.49 551.4 531.77 551.46 530.9C551.6 528.82 549.79 526.53 548.35 525.2C546.73 523.7 544.72 522.83 542.63 522.21C541.58 521.89 541.64 523.26 542.42 523.6" id="b1VD2eqing"></path><path d="M551.13 523.84C553.43 523.47 555.61 522.61 557.91 522.26C559.88 521.96 562.09 521.83 564.01 522.48C564.44 522.63 564.86 522.81 565.25 523.04C565.54 522.41 565.48 522.3 565.08 522.71C561.46 525.87 555.18 523.4 551.15 522.45C549.91 522.15 549.97 523.68 550.9 524.1C554.41 525.68 558.25 526.73 562.14 526.45C563.7 526.34 567.77 525.49 567.78 523.33C567.78 521.29 564.06 520.36 562.59 520.14C558.49 519.53 553.98 520.78 550.31 522.61C549.6 522.97 550.62 523.92 551.13 523.84" id="a2ekuK4XJO"></path><path d="M143.81 500.06C143.56 496.5 139.88 494.55 136.59 494.95C132.05 495.5 129.55 499.71 130.76 504.01C133.26 512.87 144.07 520.34 152.77 521.86C153.93 522.06 153.36 520.52 152.77 520.2C147.47 517.36 141.92 515.62 137.62 511.13C135.75 509.17 133.63 506.48 133.01 503.78C131.8 498.56 139.92 492.99 142.43 499.79C142.6 500.24 143.88 500.97 143.81 500.06" id="cZDeqy22B"></path><path d="M152.15 525.11C146.57 525.35 140.49 527.96 136.18 531.5C132.52 534.5 128.7 540.13 130.13 545.08C131.36 549.33 134.95 551.89 139.37 551.56C144.94 551.15 148.18 545.67 144.58 540.97C144.01 540.23 142.47 540.36 143.06 541.52C145.71 546.75 138.27 551.74 134.2 547.92C131.99 545.85 132.23 543.06 133.2 540.51C136.4 532.16 144.84 529 152.62 526.28C153.31 526.04 152.7 525.09 152.15 525.11" id="fJOEOvjCX"></path><path d="M122.22 508.22C124.31 511.58 126.7 514.79 129.43 517.66C131.77 520.12 134.56 522.99 137.82 524.15C139.03 524.58 139.03 523.14 138.36 522.55C135.63 520.15 132.65 518.32 130.11 515.64C127.74 513.15 125.63 510.43 123.43 507.79C122.98 507.24 121.67 507.33 122.22 508.22" id="dIIgNwxgD"></path><path d="M137.88 522.54C131.84 523.72 123.22 528.78 122.38 535.54C122.27 536.34 123.7 537.3 124.3 536.6C126.41 534.13 127.5 531.22 130 528.97C132.59 526.64 135.6 525.25 138.73 523.81C139.47 523.48 138.42 522.43 137.88 522.54" id="f41pDsTXCw"></path><path d="M115.44 515.01C117.58 518.55 120.45 522.65 124.57 523.93C125.52 524.23 125.52 523.17 124.99 522.7C123.56 521.4 121.92 520.38 120.55 519.01C119.18 517.62 118 516.04 116.75 514.54C116.26 513.95 114.85 514.04 115.44 515.01" id="a2mOpT6rAY"></path><path d="M124.08 522.17C122.1 522.74 120.23 523.48 118.65 524.84C117.16 526.14 115.55 528.26 115.66 530.33C115.7 531.02 116.76 531.92 117.37 531.27C118.06 530.52 118.32 529.51 118.82 528.64C119.25 527.87 119.78 527.16 120.41 526.54C121.71 525.26 123.44 524.42 125.08 523.66C125.9 523.28 124.74 521.98 124.08 522.17" id="c2p1Ztha58"></path><path d="M116.51 522.66C112.92 521.04 108.79 519.73 104.81 520.03C103.32 520.15 98.87 520.8 99.42 523.15C99.86 525.04 103.26 526.15 104.9 526.37C108.9 526.9 113.07 525.91 116.66 524.17C117.65 523.69 116.24 522.24 115.48 522.41C112.17 523.14 103.88 526.31 101.39 522.62C101.49 522.99 101.59 523.36 101.69 523.73C102.44 521.55 107.96 522 109.44 522.2C111.85 522.52 114.12 523.42 116.5 523.84C117.3 523.99 116.97 522.87 116.51 522.66" id="bqy9YSo2i"></path><path d="M168.63 524.59C210.49 525.5 252.43 524.89 294.29 524.91C334.51 524.93 374.72 524.96 414.94 524.98C439.03 525 463.12 524.99 487.21 525C488.96 525 487.86 522.63 486.57 522.63C486.45 522.63 486.34 522.63 486.22 522.63C484.47 522.63 485.57 524.99 486.86 525C490.42 525 493.97 525.02 497.52 524.89C499.27 524.82 497.87 522.23 496.42 522.83C496.85 522.76 496.91 522.73 496.59 522.75C495.02 522.75 496.01 524.87 497.17 524.87C497.41 524.89 497.43 524.88 497.23 524.83C498.88 525.36 498.46 522.79 496.94 522.73C493.36 522.6 489.79 522.63 486.22 522.63C484.47 522.63 485.57 525 486.86 525C486.98 525 487.09 525 487.21 525C488.96 524.99 487.86 522.63 486.57 522.63C404.51 522.64 322.46 522.7 240.4 522.74C216.34 522.75 192.26 522.5 168.21 523.03C167.05 523.06 167.79 524.57 168.63 524.59" id="b3D2pJUyAg"></path></defs><g><g><use xlink:href="#amA5ghQpb" opacity="1" fill="#1e120d" fill-opacity="1"></use><g><use xlink:href="#amA5ghQpb" opacity="1" fill-opacity="0" stroke="#000000" stroke-width="1" stroke-opacity="0"></use></g></g><g><use xlink:href="#d19zwTDLD" opacity="1" fill="#1e120d" fill-opacity="1"></use><g><use xlink:href="#d19zwTDLD" opacity="1" fill-opacity="0" stroke="#000000" stroke-width="1" stroke-opacity="0"></use></g></g><g><use xlink:href="#b7Jp2dakpU" opacity="1" fill="#1e120d" fill-opacity="1"></use><g><use xlink:href="#b7Jp2dakpU" opacity="1" fill-opacity="0" stroke="#000000" stroke-width="1" stroke-opacity="0"></use></g></g><g><use xlink:href="#bkV6zH7NY" opacity="1" fill="#1e120d" fill-opacity="1"></use><g><use xlink:href="#bkV6zH7NY" opacity="1" fill-opacity="0" stroke="#000000" stroke-width="1" stroke-opacity="0"></use></g></g><g><use xlink:href="#b1egQCpYcm" opacity="1" fill="#1e120d" fill-opacity="1"></use><g><use xlink:href="#b1egQCpYcm" opacity="1" fill-opacity="0" stroke="#000000" stroke-width="1" stroke-opacity="0"></use></g></g><g><use xlink:href="#b1VD2eqing" opacity="1" fill="#1e120d" fill-opacity="1"></use><g><use xlink:href="#b1VD2eqing" opacity="1" fill-opacity="0" stroke="#000000" stroke-width="1" stroke-opacity="0"></use></g></g><g><use xlink:href="#a2ekuK4XJO" opacity="1" fill="#1e120d" fill-opacity="1"></use><g><use xlink:href="#a2ekuK4XJO" opacity="1" fill-opacity="0" stroke="#000000" stroke-width="1" stroke-opacity="0"></use></g></g><g><use xlink:href="#cZDeqy22B" opacity="1" fill="#1e120d" fill-opacity="1"></use><g><use xlink:href="#cZDeqy22B" opacity="1" fill-opacity="0" stroke="#000000" stroke-width="1" stroke-opacity="0"></use></g></g><g><use xlink:href="#fJOEOvjCX" opacity="1" fill="#1e120d" fill-opacity="1"></use><g><use xlink:href="#fJOEOvjCX" opacity="1" fill-opacity="0" stroke="#000000" stroke-width="1" stroke-opacity="0"></use></g></g><g><use xlink:href="#dIIgNwxgD" opacity="1" fill="#1e120d" fill-opacity="1"></use><g><use xlink:href="#dIIgNwxgD" opacity="1" fill-opacity="0" stroke="#000000" stroke-width="1" stroke-opacity="0"></use></g></g><g><use xlink:href="#f41pDsTXCw" opacity="1" fill="#1e120d" fill-opacity="1"></use><g><use xlink:href="#f41pDsTXCw" opacity="1" fill-opacity="0" stroke="#000000" stroke-width="1" stroke-opacity="0"></use></g></g><g><use xlink:href="#a2mOpT6rAY" opacity="1" fill="#1e120d" fill-opacity="1"></use><g><use xlink:href="#a2mOpT6rAY" opacity="1" fill-opacity="0" stroke="#000000" stroke-width="1" stroke-opacity="0"></use></g></g><g><use xlink:href="#c2p1Ztha58" opacity="1" fill="#1e120d" fill-opacity="1"></use><g><use xlink:href="#c2p1Ztha58" opacity="1" fill-opacity="0" stroke="#000000" stroke-width="1" stroke-opacity="0"></use></g></g><g><use xlink:href="#bqy9YSo2i" opacity="1" fill="#1e120d" fill-opacity="1"></use><g><use xlink:href="#bqy9YSo2i" opacity="1" fill-opacity="0" stroke="#000000" stroke-width="1" stroke-opacity="0"></use></g></g><g><use xlink:href="#b3D2pJUyAg" opacity="1" fill="#1e120d" fill-opacity="1"></use><g><use xlink:href="#b3D2pJUyAg" opacity="1" fill-opacity="0" stroke="#000000" stroke-width="1" stroke-opacity="0"></use></g></g></g></svg>