<svg xmlns="http://www.w3.org/2000/svg" width="1240" height="1240"><path d="M286.465.952c-4.837 1.96-4.935 2.569-5.465 33.95l-.5 29.598-88 .536c-96.248.587-90.84.25-105.118 6.555-13.638 6.022-27.803 18.256-36.226 31.289-4.777 7.39-9.413 18.914-11.314 28.12-1.113 5.389-1.342 94.296-1.342 520v513.5l2.262 8.5c4.343 16.324 12.533 30.287 24.374 41.557 11.145 10.608 23.068 17.345 38.364 21.677l8 2.266 302 .308c306.622.313 320.614.178 348.5-3.36 125.381-15.908 240.897-88.983 323.187-204.448 94.264-132.266 134.096-307.288 109.24-480-23.09-160.438-102.067-302.853-217.434-392.088C913.63 109.902 839.541 78.169 766 68.544c-6.875-.9-13.625-1.919-15-2.264-1.375-.346-85.75-.888-187.5-1.204l-185-.576-.5-29c-.275-15.95-.892-29.804-1.371-30.787C374.422.186 372.494-.004 329.3.063c-22.44.035-41.716.435-42.835.889m565.474 235.109c-2.954 2.954-2.206 6.891 1.787 9.407 1.774 1.117 7.326 4.507 12.338 7.532 43.056 25.986 80.43 69.693 100.445 117.467 2.521 6.016 5.068 11.523 5.66 12.236 1.352 1.63 7.034 1.694 8.631.097 1.874-1.874 1.441-5.142-1.747-13.167-21.583-54.333-64.998-104.088-115.149-131.966-7.608-4.229-9.137-4.434-11.965-1.606M82.775 754.557c-1.499.814-3.186 2.343-3.75 3.396-1.396 2.609-1.398 79.481-.002 82.09 2.493 4.659-10.658 4.428 282.477 4.957l277 .5 29 9.66c51.946 17.303 92.658 28.562 119.022 32.916 20.639 3.408 43.827 1.736 84.978-6.13 32.856-6.28 82.637-18.21 123.458-29.586 21.241-5.92 24.129-7.503 26.123-14.318.659-2.255.924-17.254.727-41.27l-.308-37.729-2.773-2.771-2.772-2.772-465.228-.212c-409.191-.186-465.555-.033-467.952 1.269" fill="undefined" fill-rule="evenodd"/></svg>